<svg width="258" height="450" viewBox="0 0 258 450" fill="none" xmlns="http://www.w3.org/2000/svg">
<path d="M0 20C0 8.9543 8.95431 0 20 0H130C141.046 0 150 8.95431 150 20V430C150 441.046 141.046 450 130 450H20C8.9543 450 0 441.046 0 430V20Z" fill="#171D1C"/>
<path d="M158 41.905C158 25.084 177.502 15.7765 190.579 26.356L250.579 74.8953C255.273 78.6925 258 84.4069 258 90.4443V430C258 441.046 249.046 450 238 450H178C166.954 450 158 441.046 158 430V41.905Z" fill="url(#paint0_linear_7_28)"/>
<defs>
<linearGradient id="paint0_linear_7_28" x1="208" y1="0" x2="54.2752" y2="657.561" gradientUnits="userSpaceOnUse">
<stop offset="0.21875" stop-color="#F1A208"/>
<stop offset="1" stop-color="#171D1C"/>
</linearGradient>
</defs>
</svg>
